<?xml version="1.0" encoding="UTF-8"?>
<svg width="156px" height="37px" viewBox="0 0 156 37" version="1.1" xmlns="http://www.w3.org/2000/svg" xmlns:xlink="http://www.w3.org/1999/xlink">
    <title>Aliexpress_logo</title>
    <defs>
        <filter id="filter-1">
            <feColorMatrix in="SourceGraphic" type="matrix" values="0 0 0 0 1.000000 0 0 0 0 1.000000 0 0 0 0 1.000000 0 0 0 1.000000 0"></feColorMatrix>
        </filter>
    </defs>
    <g id="GlobalTradeBox" stroke="white" stroke-width="3" fill="none" fill-rule="evenodd">
        <g id="GTB-Landing-v1" transform="translate(-1055.000000, -979.000000)">
            <g id="Group-10" transform="translate(182.000000, 940.000000)">
                <g id="Aliexpress_logo" transform="translate(676.000000, 36.000000)" filter="url(#filter-1)">
                    <g transform="translate(197.000000, 3.000000)">
                        <g id="g32" transform="translate(38.540541, 2.511628)" fill="#E43225" fill-rule="nonzero">
                            <polygon id="path12" points="0.0549060816 24.0831272 0.0549060816 0.213755567 14.1152555 0.213755567 14.1152555 3.2063335 2.96639257 3.2063335 2.96639257 10.5452746 12.9790656 10.5452746 12.9790656 13.5378525 2.96639257 13.5378525 2.96639257 21.0192974 14.896386 21.0192974 14.896386 24.0118753 0.0549060816 24.0118753"></polygon>
                            <polygon id="path14" points="29.666854 24.0831272 24.8380471 17.741712 20.0092403 24.0831272 16.6006707 24.0831272 23.2047742 15.6041564 16.2456114 6.84017813 20.0802522 6.84017813 24.8380471 13.3953488 29.666854 6.84017813 33.4304829 6.84017813 26.8263794 15.6041564 33.0754236 24.0831272"></polygon>
                            <path d="M37.7622067,21.5180604 L37.7622067,33.2746165 L34.8507202,33.2746165 L34.8507202,15.6754082 C34.8507202,11.1865413 38.2592897,6.412667 43.5851796,6.412667 C48.9820814,6.412667 53.0297578,9.83275606 53.0297578,15.4616526 C53.0297578,20.9480455 48.9110696,24.7243939 44.2242864,24.7243939 C41.9519067,24.7243939 38.8983965,23.7268679 37.7622067,21.5180604 L37.7622067,21.5180604 Z M49.9762475,15.4616526 C49.9762475,11.6140524 47.4908323,9.33399307 43.0880966,9.54774864 C40.9577406,9.61900049 37.6911948,11.1865413 37.9752423,16.6729342 C38.0462541,18.4542306 39.8925626,21.8030678 43.940239,21.8030678 C47.4198204,21.8030678 49.9762475,19.8080158 49.9762475,15.4616526 L49.9762475,15.4616526 Z" id="path16"></path>
                            <path d="M55.5151731,24.0831272 L55.5151731,6.84017813 L58.4266595,6.84017813 L58.4266595,8.69272637 C59.8468969,7.0539337 62.0482647,6.48391885 64.3916562,6.48391885 L64.3916562,9.61900049 C64.0365969,9.54774864 60.5570155,9.12023751 58.4266595,13.6803563 L58.4266595,24.154379 L55.5151731,24.154379 L55.5151731,24.0831272 Z" id="path18"></path>
                            <path d="M65.1727868,15.4616526 C65.1727868,10.4740228 68.72338,6.412667 73.6231988,6.412667 C79.7302192,6.412667 82.0025989,10.4740228 82.0025989,15.6754082 L82.0025989,17.1004453 L68.3683207,17.1004453 C68.5813563,20.3780307 71.4928428,22.0880752 74.1912937,22.0168234 C76.1796259,21.9455715 77.5288514,21.3755567 78.9490887,19.9505195 L80.866409,21.9455715 C79.0911124,23.655616 76.8187327,24.7956457 74.04927,24.7956457 C68.8654038,24.7243939 65.1727868,20.8767937 65.1727868,15.4616526 L65.1727868,15.4616526 Z M73.4101632,9.33399307 C70.6407004,9.33399307 68.5103444,11.7565562 68.3683207,14.3928748 L78.9490887,14.3928748 C78.9490887,11.827808 77.1027802,9.33399307 73.4101632,9.33399307 L73.4101632,9.33399307 Z" id="path20"></path>
                            <path d="M83.4938481,21.6605641 C83.4938481,21.6605641 85.624204,19.736764 85.624204,19.736764 C85.5531922,19.736764 86.689382,20.8767937 86.8314058,20.9480455 C87.3284888,21.3755567 87.8255719,21.6605641 88.4646787,21.8030678 C90.3109872,22.3018308 93.6485448,22.1593271 93.9325923,19.5942603 C94.074616,18.1692232 93.0094381,17.3854527 91.8022363,16.8866898 C90.2399753,16.3166749 88.5356905,16.1029193 86.9734295,15.3904008 C85.1981328,14.6066304 84.061943,13.2528451 84.061943,11.2577932 C84.061943,6.05640772 91.447177,5.20138545 94.7847347,7.62394854 C94.9267584,7.76645225 96.5600313,9.26274122 96.4890195,9.26274122 L94.3586635,10.9727857 C93.2934855,9.69025235 92.2993194,9.04898565 90.0269397,9.04898565 C88.8907499,9.04898565 87.3284888,9.54774864 87.0444413,10.7590302 C86.6183702,12.4690747 88.5356905,13.1103414 89.8139041,13.4666007 C91.5181889,13.8941118 93.3644974,14.1791192 94.8557466,15.1053934 C96.9150907,16.3879268 97.4121737,19.1667491 96.6310432,21.3043048 C95.7789008,23.655616 93.2224736,24.5818902 90.950094,24.653142 C88.2516431,24.7956457 85.9082515,23.9406235 83.9909311,22.0168234 C83.8489074,22.0168234 83.4938481,21.6605641 83.4938481,21.6605641 L83.4938481,21.6605641 Z" id="path22"></path>
                            <path d="M98.4773517,21.6605641 C98.4773517,21.6605641 100.607708,19.736764 100.607708,19.736764 C100.536696,19.736764 101.672886,20.8767937 101.814909,20.9480455 C102.311992,21.3755567 102.809075,21.6605641 103.448182,21.8030678 C105.294491,22.3018308 108.632048,22.1593271 108.916096,19.5942603 C109.05812,18.1692232 107.992942,17.3854527 106.78574,16.8866898 C105.223479,16.3166749 103.519194,16.1029193 101.956933,15.3904008 C100.181636,14.6066304 99.0454466,13.2528451 99.0454466,11.2577932 C99.0454466,6.05640772 106.430681,5.20138545 109.768238,7.62394854 C109.910262,7.76645225 111.543535,9.26274122 111.472523,9.26274122 L109.342167,10.9727857 C108.276989,9.69025235 107.282823,9.04898565 105.010443,9.04898565 C103.874253,9.04898565 102.311992,9.54774864 102.027945,10.7590302 C101.601874,12.4690747 103.519194,13.1103414 104.797408,13.4666007 C106.501693,13.8941118 108.348001,14.1791192 109.83925,15.1053934 C111.898594,16.3879268 112.395677,19.1667491 111.614547,21.3043048 C110.762404,23.655616 108.205977,24.5818902 105.933598,24.653142 C103.235147,24.7956457 100.891755,23.9406235 98.9744348,22.0168234 C98.832411,22.0168234 98.4773517,21.6605641 98.4773517,21.6605641 L98.4773517,21.6605641 Z" id="path24"></path>
                            <g id="g30" transform="translate(111.488629, 4.576808)">
                                <polygon id="path26" points="0.836036602 2.26336975 0.836036602 0.410821509 0.196929813 0.410821509 0.196929813 0.0545622317 1.90121459 0.0545622317 1.90121459 0.410821509 1.2621078 0.410821509 1.2621078 2.26336975"></polygon>
                                <polygon id="path28" points="4.03157055 2.26336975 4.03157055 0.55332522 3.39246376 2.26336975 3.25044003 2.26336975 2.61133324 0.55332522 2.61133324 2.26336975 2.25627391 2.26336975 2.25627391 0.0545622317 2.82436884 0.0545622317 3.39246376 1.5508512 3.96055869 0.0545622317 4.52865361 0.0545622317 4.52865361 2.26336975"></polygon>
                            </g>
                        </g>
                        <g id="g41" fill="#F7971D" fill-rule="nonzero">
                            <path d="M18.7213157,26.649694 L16.617797,21.0095471 L5.25879653,21.0095471 L3.15527792,26.649694 L0.140234574,26.649694 L9.2554819,3.03157895 L12.5509944,3.03157895 L21.5961244,26.649694 L18.7213157,26.649694 Z M10.7980622,6.41566707 L6.5209077,18.1189718 L15.4258032,18.1189718 L10.7980622,6.41566707 Z" id="path34"></path>
                            <polygon id="path36" points="23.4892912 26.649694 23.4892912 3.03157895 26.4342172 3.03157895 26.4342172 26.649694"></polygon>
                            <polygon id="path38" points="30.8516063 26.649694 30.8516063 9.94075887 33.7965324 9.94075887 33.7965324 26.649694"></polygon>
                            <path d="M36.6012239,4.5121175 C36.6012239,4.44161567 36.6012239,4.44161567 36.6012239,4.37111383 C36.6012239,4.300612 36.6012239,4.300612 36.6012239,4.23011016 C34.3574707,4.15960832 32.5344212,2.32656059 32.4643039,0.070501836 C32.3941866,0.070501836 32.3240694,0.070501836 32.2539521,0.070501836 C32.1838348,0.070501836 32.1137175,0.070501836 32.0436002,0.070501836 C31.9734829,2.32656059 30.1504335,4.15960832 27.9066803,4.23011016 C27.9066803,4.300612 27.9066803,4.300612 27.9066803,4.37111383 C27.9066803,4.44161567 27.9066803,4.44161567 27.9066803,4.5121175 C30.1504335,4.58261934 31.9734829,6.41566707 32.0436002,8.67172583 C32.1137175,8.67172583 32.1838348,8.67172583 32.2539521,8.67172583 C32.3240694,8.67172583 32.3941866,8.67172583 32.4643039,8.67172583 C32.5344212,6.41566707 34.3574707,4.58261934 36.6012239,4.5121175 Z" id="XMLID_1_"></path>
                        </g>
                    </g>
                </g>
            </g>
        </g>
    </g>
</svg>