<?xml version="1.0" encoding="UTF-8"?>
<svg width="137px" height="41px" viewBox="0 0 137 41" version="1.1" xmlns="http://www.w3.org/2000/svg" xmlns:xlink="http://www.w3.org/1999/xlink">
    <title>Amazon_logo</title>
    <defs>
        <filter id="filter-1">
            <feColorMatrix in="SourceGraphic" type="matrix" values="0 0 0 0 1.000000 0 0 0 0 1.000000 0 0 0 0 1.000000 0 0 0 1.000000 0"></feColorMatrix>
        </filter>
    </defs>
    <g id="GlobalTradeBox" stroke="none" stroke-width="1" fill="none" fill-rule="evenodd">
        <g id="GTB-Landing-v1" transform="translate(-858.000000, -976.000000)">
            <g id="Group-10" transform="translate(182.000000, 940.000000)">
                <g id="Amazon_logo" transform="translate(676.000000, 36.000000)" filter="url(#filter-1)">
                    <g>
                        <path d="M85.1346353,31.9309907 C77.0610928,37.8447798 65.3589839,41 55.2836917,41 C41.1564993,41 28.438404,35.8074078 18.816673,27.1711167 C18.0607247,26.4919885 18.7380517,25.5664601 19.645195,26.0953319 C30.0289192,32.0992702 42.8679738,35.7112473 56.1303567,35.7112473 C65.0747482,35.7112473 74.9141917,33.8722008 83.9613993,30.0558895 C85.3281557,29.4789305 86.4711519,30.9453605 85.1346353,31.9309907" id="path8" fill="#FF9900"></path>
                        <path d="M89.4404114,28.6836006 C88.3775537,27.3869842 82.3880623,28.0709783 79.6996701,28.3743155 C78.8806442,28.4694814 78.755608,27.7914325 79.4933484,27.3037113 C84.2636865,24.1097533 92.0912934,25.0316607 93.0040961,26.1022595 C93.9168974,27.1788102 92.7665179,34.6432797 88.283774,38.2059974 C87.5960452,38.7531919 86.9395772,38.4617545 87.2459307,37.7361226 C88.2525146,35.3451132 90.5095184,29.9861649 89.4404114,28.6836006" id="path10" fill="#FF9900"></path>
                        <path d="M78.1614515,4.70781459 L78.1614515,1.61805329 C78.1614515,1.15044586 78.538729,0.836734694 78.9914631,0.836734694 L93.686425,0.836734694 C94.1580247,0.836734694 94.5353021,1.15636571 94.5353021,1.61805329 L94.5353021,4.26388411 C94.5290184,4.70781459 94.1328725,5.28788479 93.4286177,6.20534256 L85.8138988,16.4394401 C88.6434839,16.3743346 91.6302661,16.7709082 94.1957545,18.1322985 C94.7742453,18.44009 94.9314452,18.8899402 94.9754601,19.3338753 L94.9754601,22.6308059 C94.9754601,23.0806548 94.4472708,23.6074487 93.8939308,23.3351737 C89.3728852,21.1036775 83.367882,20.8609955 78.368953,23.3588517 C77.8596293,23.6192925 77.3251534,23.0984136 77.3251534,22.6485607 L77.3251534,19.5173668 C77.3251534,19.0142455 77.3314371,18.1559738 77.865913,17.392413 L86.6879252,5.48321539 L79.0103258,5.48321539 C78.538729,5.48321539 78.1614515,5.16950681 78.1614515,4.70781459" id="path12" fill="#000000"></path>
                        <path d="M28.3872689,24.2653061 L24.2693009,24.2653061 C23.8754608,24.2358621 23.5627031,23.9354954 23.5337423,23.5526713 L23.5337423,2.06176211 C23.5337423,1.63182594 23.8870432,1.29023017 24.3272184,1.29023017 L28.16718,1.29023017 C28.5668186,1.30788686 28.8853629,1.62004318 28.914325,2.00875213 L28.914325,4.81806418 L28.9896182,4.81806418 C29.991598,2.10298486 31.8739309,0.836734694 34.41074,0.836734694 C36.9880896,0.836734694 38.5982106,2.10298486 39.7565701,4.81806418 C40.7527594,2.10298486 43.0173513,0.836734694 45.4441172,0.836734694 C47.1700733,0.836734694 49.0581994,1.5611475 50.2107682,3.18665947 C51.5139221,4.99474661 51.2474981,7.62147903 51.2474981,9.92429035 L51.2417102,23.4878909 C51.2417102,23.9178252 50.8884093,24.2653061 50.4482341,24.2653061 L46.336054,24.2653061 C45.9248396,24.2358621 45.5947075,23.900159 45.5947075,23.4878909 L45.5947075,12.0975277 C45.5947075,11.1905401 45.6757873,8.92895818 45.4788699,8.06908353 C45.1719054,6.62615132 44.2510105,6.2197693 43.0578958,6.2197693 C42.0617065,6.2197693 41.0191847,6.89706635 40.5963825,7.98074339 C40.1735804,9.064418 40.2141235,10.878391 40.2141235,12.0975277 L40.2141235,23.4878909 C40.2141235,23.9178252 39.860824,24.2653061 39.4206461,24.2653061 L35.3084727,24.2653061 C34.8914624,24.2358621 34.5671209,23.900159 34.5671209,23.4878909 L34.561333,12.0975277 C34.561333,9.70048797 34.9493785,6.17265395 32.0245252,6.17265395 C29.0649126,6.17265395 29.180749,9.6121412 29.180749,12.0975277 L29.180749,23.4878909 C29.180749,23.9178252 28.8274481,24.2653061 28.3872729,24.2653061" id="path14" fill="#000000"></path>
                        <path d="M107.084679,0 C113.406598,0 116.828221,5.42288323 116.828221,12.3182061 C116.828221,18.9800908 113.047051,24.2653061 107.084679,24.2653061 C100.876614,24.2653061 97.4969325,18.8424231 97.4969325,12.08477 C97.4969325,5.28521558 100.918559,0 107.084679,0 M107.120631,4.45921693 C103.980647,4.45921693 103.782872,8.73287583 103.782872,11.3964366 C103.782872,14.0659792 103.740951,19.7641947 107.084679,19.7641947 C110.386457,19.7641947 110.542261,15.1673177 110.542261,12.366087 C110.542261,10.5225501 110.464359,8.31987767 109.907069,6.57210249 C109.427681,5.05178421 108.474903,4.45921693 107.120631,4.45921693" id="path16" fill="#000000"></path>
                        <path d="M124.40731,24.2653061 L120.129181,24.2653061 C119.700157,24.2358621 119.355732,23.900159 119.355732,23.4878909 L119.349693,1.99108367 C119.385949,1.59648456 119.742462,1.29023017 120.177525,1.29023017 L124.159572,1.29023017 C124.534207,1.30788686 124.842378,1.5552595 124.926977,1.89096308 L124.926977,5.17732164 L125.005526,5.17732164 C126.207999,2.23844481 127.893866,0.836734694 130.860762,0.836734694 C132.788339,0.836734694 134.667575,1.51403229 135.876086,3.36923477 C137,5.08897921 137,7.98074339 137,10.0597457 L137,23.5880131 C136.951662,23.9649395 136.595148,24.2653061 136.172174,24.2653061 L131.863829,24.2653061 C131.47106,24.2358621 131.144761,23.9531643 131.102468,23.5880131 L131.102468,11.9149528 C131.102468,9.56502815 131.380424,6.12553643 128.413527,6.12553643 C127.368167,6.12553643 126.407399,6.80872622 125.930037,7.84528114 C125.325784,9.15865087 125.247229,10.4661277 125.247229,11.9149528 L125.247229,23.4878909 C125.241191,23.9178252 124.86655,24.2653061 124.407317,24.2653061" id="path18" fill="#000000"></path>
                        <path d="M68.4266336,13.5570392 C68.4266336,15.211355 68.4699167,16.5909475 67.6042394,18.0601253 C66.9055153,19.2545818 65.7925023,19.9891686 64.5620057,19.9891686 C62.8739343,19.9891686 61.8845885,18.7469347 61.8845885,16.9134503 C61.8845885,13.29426 65.2421779,12.6373119 68.4266336,12.6373119 L68.4266336,13.5570392 M72.8601393,23.9069705 C72.5695218,24.1578052 72.1490453,24.1757209 71.8213269,24.0085005 C70.3620393,22.8379375 70.0961545,22.2944632 69.2984957,21.17765 C66.8869648,23.5546087 65.174158,24.2653061 62.0515373,24.2653061 C58.3476747,24.2653061 55.4723926,22.0615401 55.4723926,17.6480427 C55.4723926,14.2020441 57.4016191,11.8549446 60.159419,10.7082707 C62.5462131,9.69298242 65.8790656,9.51381779 68.4266336,9.23312181 L68.4266336,8.68367361 C68.4266336,7.67435794 68.5070191,6.47990501 67.8886776,5.60795904 C67.3569051,4.82558942 66.3304555,4.50308712 65.4214966,4.50308712 C63.7457908,4.50308712 62.2555928,5.33323144 61.8907692,7.05324303 C61.8165686,7.43547048 61.5259512,7.81172297 61.1240251,7.82963961 L56.8636589,7.38768906 C56.5050187,7.31005385 56.1030997,7.02935335 56.2082178,6.49782618 C57.1851966,1.50501449 61.8598559,0 66.0398366,0 C68.1792979,0 70.9741973,0.549449442 72.6622687,2.11418126 C74.8017256,4.04322213 74.5976758,6.61726771 74.5976758,9.41826154 L74.5976758,16.0355284 C74.5976758,18.0242953 75.450986,18.8962407 76.2548283,19.9712529 C76.5330858,20.3534738 76.5949193,20.813338 76.2362607,21.1000067 C75.3396674,21.8226543 73.7443457,23.1664127 72.8663029,23.9189166 L72.8601236,23.9069527" id="path28" fill="#000000"></path>
                        <path d="M12.9508584,13.5570392 C12.9508584,15.211355 12.9941266,16.5909475 12.1286797,18.0601253 C11.4301331,19.2545818 10.3235931,19.9891686 9.08723414,19.9891686 C7.39960411,19.9891686 6.41670081,18.7469347 6.41670081,16.9134503 C6.41670081,13.29426 9.77341338,12.6373119 12.9508584,12.6373119 L12.9508584,13.5570392 M17.3832024,23.9069705 C17.0926595,24.1578052 16.6722928,24.1757209 16.3446586,24.0085005 C14.8857594,22.8379375 14.6261203,22.2944632 13.8224878,21.17765 C11.4115878,23.5546087 9.70541719,24.2653061 6.57742554,24.2653061 C2.88071132,24.2653061 0,22.0615401 0,17.6480427 C0,14.2020441 1.93490089,11.8549446 4.68579787,10.7082707 C7.07196963,9.69298242 10.4039566,9.51381779 12.9508584,9.23312181 L12.9508584,8.68367361 C12.9508584,7.67435794 13.031222,6.47990501 12.4192239,5.60795904 C11.8814042,4.82558942 10.8552301,4.50308712 9.95268561,4.50308712 C8.27742318,4.50308712 6.78142589,5.33323144 6.41670081,7.05324303 C6.34251763,7.43547048 6.0519736,7.81172297 5.65634081,7.82963961 L1.3909036,7.38768906 C1.03235884,7.31005385 0.636723583,7.02935335 0.7356324,6.49782618 C1.71853806,1.50501449 6.38579053,0 10.5646862,0 C12.7035829,0 15.4977532,0.549449442 17.1853835,2.11418126 C19.3242857,4.04322213 19.1202835,6.61726771 19.1202835,9.41826154 L19.1202835,16.0355284 C19.1202835,18.0242953 19.9733751,18.8962407 20.7770087,19.9712529 C21.0613697,20.3534738 21.1231871,20.813338 20.7646392,21.1000067 C19.8682802,21.8226543 18.2733796,23.1664127 17.3955605,23.9189166 L17.3832052,23.9069527" id="path30" fill="#000000"></path>
                    </g>
                </g>
            </g>
        </g>
    </g>
</svg>