<?xml version="1.0" encoding="UTF-8"?>
<svg width="105px" height="42px" viewBox="0 0 105 42" version="1.1" xmlns="http://www.w3.org/2000/svg" xmlns:xlink="http://www.w3.org/1999/xlink">
    <title>EBay_logo</title>
    <defs>
        <filter id="filter-1">
            <feColorMatrix in="SourceGraphic" type="matrix" values="0 0 0 0 1.000000 0 0 0 0 1.000000 0 0 0 0 1.000000 0 0 0 1.000000 0"></feColorMatrix>
        </filter>
    </defs>
    <g id="GlobalTradeBox" stroke="none" stroke-width="1" fill="none" fill-rule="evenodd">
        <g id="GTB-Landing-v1" transform="translate(-1271.000000, -976.000000)">
            <g id="Group-10" transform="translate(182.000000, 940.000000)">
                <g id="EBay_logo" transform="translate(676.000000, 36.000000)" filter="url(#filter-1)">
                    <g transform="translate(413.000000, 0.000000)">
                        <path d="M13.3973914,10.08 C6.08958787,10.08 0,13.1587964 0,22.4473847 C0,29.8059915 4.09480703,34.44 13.5860869,34.44 C24.7577678,34.44 25.4739131,27.1319998 25.4739131,27.1319998 L20.0607066,27.1319998 C20.0607066,27.1319998 18.9000697,31.067077 13.2558696,31.067077 C8.65882279,31.067077 5.35244651,27.9832134 5.35244651,23.6607299 L26.04,23.6607299 L26.04,20.9483077 C26.04,16.6720126 23.3063398,10.08 13.3973914,10.08 L13.3973914,10.08 Z M13.2086955,13.5466152 C17.5846081,13.5466152 20.5678261,16.2087661 20.5678261,20.198769 L5.47217389,20.198769 C5.47217389,15.9628929 9.36603344,13.5466152 13.2086955,13.5466152 L13.2086955,13.5466152 Z" id="e" fill="#E53238" fill-rule="nonzero"></path>
                        <path d="M26.1597197,0 L26.1597197,29.5612149 C26.1597197,31.2392031 26.04,33.5952911 26.04,33.5952911 L31.3210782,33.5952911 C31.3210782,33.5952911 31.5106341,31.9031154 31.5106341,30.3566315 C31.5106341,30.3566315 34.1198278,34.44 41.214419,34.44 C48.6853092,34.44 53.76,29.2513928 53.76,21.8176314 C53.76,14.9021103 49.0987324,9.34007013 41.2264801,9.34007013 C33.854672,9.34007013 31.5639704,13.3222706 31.5639704,13.3222706 L31.5639704,0 L26.1597197,0 Z M39.8633544,12.9964541 C44.93667,12.9964541 48.1627418,16.763048 48.1627418,21.8176314 C48.1627418,27.2377547 44.4367367,30.783616 39.8995449,30.783616 C34.4848039,30.783616 31.5639704,26.554332 31.5639704,21.8659006 C31.5639704,17.4971962 34.1849199,12.9964541 39.8633544,12.9964541 Z" id="b" fill="#0064D2" fill-rule="nonzero"></path>
                        <path d="M66.8627267,10.08 C56.1104936,10.08 55.42091,16.0251024 55.42091,16.9751088 L60.7727267,16.9751088 C60.7727267,16.9751088 61.0533744,13.5042599 66.4936367,13.5042599 C70.028807,13.5042599 72.7681834,15.1382237 72.7681834,18.2795887 L72.7681834,19.3977145 L66.4936367,19.3977145 C58.1637305,19.3977145 53.76,21.858426 53.76,26.8518862 C53.76,31.7661682 57.8289061,34.44 63.3275293,34.44 C70.8212988,34.44 73.2353111,30.2586757 73.2353111,30.2586757 C73.2353111,31.9217777 73.3622877,33.5606408 73.3622877,33.5606408 L78.12,33.5606408 C78.12,33.5606408 77.9354533,31.5292187 77.9354533,30.2295577 L77.9354533,18.9958881 C77.9354533,11.6301248 72.0518647,10.08 66.8627267,10.08 L66.8627267,10.08 Z M72.7681834,22.7520916 L72.7681834,24.242926 C72.7681834,26.1873804 71.5799645,31.0215634 64.5847457,31.0215634 C60.7541878,31.0215634 59.11182,29.0910933 59.11182,26.8518862 C59.11182,22.7783267 64.6426369,22.7520916 72.7681834,22.7520916 L72.7681834,22.7520916 Z" id="a" fill="#F5AF02" fill-rule="nonzero"></path>
                        <polygon id="y" fill="#86B817" fill-rule="nonzero" points="75.6 10.08 81.7598403 10.08 90.600067 28.0094072 99.4200681 10.08 105 10.08 88.9345187 42 83.0814902 42 87.717386 33.1018646"></polygon>
                    </g>
                </g>
            </g>
        </g>
    </g>
</svg>