<?xml version="1.0" encoding="UTF-8"?>
<svg width="104px" height="54px" viewBox="0 0 104 54" version="1.1" xmlns="http://www.w3.org/2000/svg" xmlns:xlink="http://www.w3.org/1999/xlink">
    <title>Global Trade Logo</title>
    <defs>
        <polygon id="path-1" points="9.91525424e-05 0.124792683 38.8363983 0.124792683 38.8363983 53.9996707 9.91525424e-05 53.9996707"></polygon>
        <polygon id="path-3" points="0.303511765 0.167798246 38.813521 0.167798246 38.813521 36.7188974 0.303511765 36.7188974"></polygon>
        <polygon id="path-5" points="0.267617647 0.296654867 44.881875 0.296654867 44.881875 36.9390973 0.267617647 36.9390973"></polygon>
        <polygon id="path-7" points="0 54 104 54 104 0 0 0"></polygon>
    </defs>
    <g id="GlobalTradeBox" stroke="none" stroke-width="1" fill="none" fill-rule="evenodd">
        <g id="GTB-Landing-v1" transform="translate(-182.000000, -18.000000)">
            <g id="Global-Trade-Logo" transform="translate(182.000000, 18.000000)">
                <g id="Group-3" opacity="0.8">
                    <mask id="mask-2" fill="white">
                        <use xlink:href="#path-1"></use>
                    </mask>
                    <g id="Clip-2"></g>
                    <path d="M27.7396754,35.4585732 C27.7396754,34.3397195 27.5648364,33.2432561 27.2128449,32.1698415 C26.8621754,31.0974146 26.3363364,30.1527439 25.6326839,29.3368171 C24.9306839,28.5208902 24.0640907,27.855439 23.0342263,27.342439 C22.0043619,26.829439 20.8099042,26.5719512 19.4528364,26.5719512 C18.1420398,26.5719512 16.9710483,26.829439 15.9411839,27.342439 C14.91165,27.855439 14.032828,28.5317561 13.3073619,29.3713902 C12.5815653,30.2103659 12.0190398,31.1668902 11.6224297,32.2403049 C11.2238364,33.3133902 11.0252008,34.4088659 11.0252008,35.5277195 C11.0252008,36.647561 11.2238364,37.7436951 11.6224297,38.817439 C12.0190398,39.8908537 12.5815653,40.8454024 13.3073619,41.6850366 C14.032828,42.525 14.91165,43.2023049 15.9411839,43.7149756 C16.9710483,44.2279756 18.1420398,44.4834878 19.4528364,44.4834878 C20.8099042,44.4834878 22.0043619,44.2279756 23.0342263,43.7149756 C24.0640907,43.2023049 24.9306839,42.525 25.6326839,41.6850366 C26.3363364,40.8454024 26.8621754,39.879 27.2128449,38.781878 C27.5648364,37.6867317 27.7396754,36.5774268 27.7396754,35.4585732 M38.8364975,35.4585732 C38.8364975,37.884622 38.4607093,40.2155122 37.7130992,42.4555244 C36.9638364,44.693561 35.8744805,46.6648902 34.4470144,48.3672073 C33.0178958,50.0705122 31.2741331,51.435 29.2147347,52.461 C27.1543449,53.4856829 24.8133534,54 22.1914297,54 C19.8494466,54 17.6380144,53.5202561 15.5554805,52.5647195 C13.4712941,51.6095122 11.8679975,50.2446951 10.7449297,48.4719146 L10.6038025,48.4719146 L10.6038025,53.019439 L9.91525421e-05,53.019439 L9.91525421e-05,0.124463415 L11.517328,0.124463415 L11.517328,21.8841585 L11.6571331,21.8841585 C12.6413873,20.7195366 14.0209297,19.6464512 15.8010483,18.6658902 C17.5791839,17.6866463 19.7572347,17.1963659 22.3325568,17.1963659 C24.8612771,17.1963659 27.1434381,17.6866463 29.1800314,18.6658902 C31.2166246,19.6464512 32.9481585,20.9750488 34.3772771,22.6546463 C35.8047432,24.3339146 36.9050059,26.2818659 37.6774042,28.4968537 C38.4507941,30.7131585 38.8364975,33.0335122 38.8364975,35.4585732" id="Fill-1" fill="#FFFFFF" mask="url(#mask-2)"></path>
                </g>
                <g id="Group-6" opacity="0.8" transform="translate(28.000000, 17.000000)">
                    <mask id="mask-4" fill="white">
                        <use xlink:href="#path-3"></use>
                    </mask>
                    <g id="Clip-5"></g>
                    <path d="M27.8099824,18.3052307 C27.8099824,17.2023711 27.6248143,16.1215816 27.2541504,15.063836 C26.8815202,14.0067395 26.3483017,13.0755728 25.6515454,12.2709851 C24.9557723,11.4670465 24.0961336,10.8107833 23.0752513,10.3054412 C22.0540412,9.79945 20.8692933,9.54596754 19.5229739,9.54596754 C18.1766546,9.54596754 16.9919067,9.79945 15.9716798,10.3054412 C14.9498143,10.8107833 14.1019739,11.4670465 13.4301252,12.2709851 C12.7566378,13.0755728 12.2460328,14.0067395 11.8983101,15.063836 C11.5492765,16.1215816 11.3759067,17.2023711 11.3759067,18.3052307 C11.3759067,19.4080904 11.5492765,20.4895289 11.8983101,21.5456518 C12.2460328,22.6050202 12.7684361,23.5585816 13.4651924,24.4089325 C14.1612933,25.2599325 15.019621,25.9382658 16.0418143,26.4439325 C17.0630244,26.9495991 18.2454782,27.2011342 19.5940916,27.2011342 C20.9394277,27.2011342 22.1228647,26.9495991 23.145058,26.4439325 C24.1652849,25.9382658 25.0245958,25.2599325 25.7213521,24.4089325 C26.4184361,23.5585816 26.9408395,22.6050202 27.2885622,21.5456518 C27.6366126,20.4895289 27.8099824,19.4080904 27.8099824,18.3052307 M38.8135538,18.3052307 C38.8135538,21.1107395 38.3032765,23.6504325 37.2817387,25.926257 C36.2608563,28.201757 34.867016,30.1332219 33.1028395,31.7187044 C31.338663,33.3058096 29.2962429,34.5355728 26.9752513,35.4079939 C24.6532765,36.2820377 22.1703857,36.7188974 19.5229739,36.7188974 C16.9230832,36.7188974 14.4510076,36.2820377 12.1070748,35.4079939 C9.76150336,34.5355728 7.71908319,33.3058096 5.97850336,31.7187044 C4.23792353,30.1332219 2.85620924,28.201757 1.83499916,25.926257 C0.813789076,23.6504325 0.303511765,21.1107395 0.303511765,18.3052307 C0.303511765,15.5006956 0.813789076,12.9717132 1.83499916,10.719257 C2.85620924,8.46647632 4.23792353,6.55805526 5.97850336,4.99431842 C7.71908319,3.43155526 9.76150336,2.23587105 12.1070748,1.40823947 C14.4510076,0.581581579 16.9230832,0.167765789 19.5229739,0.167765789 C22.1703857,0.167765789 24.6532765,0.581581579 26.9752513,1.40823947 C29.2962429,2.23587105 31.338663,3.43155526 33.1028395,4.99431842 C34.867016,6.55805526 36.2608563,8.46647632 37.2817387,10.719257 C38.3032765,12.9717132 38.8135538,15.5006956 38.8135538,18.3052307" id="Fill-4" fill="#FFFFFF" mask="url(#mask-4)"></path>
                </g>
                <g id="Group-9" opacity="0.8" transform="translate(59.000000, 17.000000)">
                    <mask id="mask-6" fill="white">
                        <use xlink:href="#path-5"></use>
                    </mask>
                    <g id="Clip-8"></g>
                    <polygon id="Fill-7" fill="#FFFFFF" mask="url(#mask-6)" points="29.786625 0.296654867 22.7980588 10.0826637 15.8829485 0.296654867 1.68048529 0.296654867 15.0643456 17.7357699 0.267617647 36.9390973 14.3946397 36.9390973 22.5747132 25.6816018 30.5311103 36.9390973 44.8821397 36.9390973 30.2333162 17.7357699 43.5430588 0.296654867"></polygon>
                </g>
                <path d="M22.1750727,3.96248334 C21.8245542,3.61302609 21.407558,3.34196661 20.9240842,3.14930489 C20.4406103,2.95664318 19.8862941,2.86015362 19.2604641,2.86015362 C18.6158323,2.86015362 18.0353279,2.97219577 17.518951,3.19596267 C17.0022383,3.41972958 16.5640901,3.72157684 16.2034992,4.10150448 C15.8435798,4.48174951 15.5659181,4.92230051 15.371857,5.42347489 C15.177796,5.92433187 15.0807655,6.45216784 15.0807655,7.0066654 C15.0807655,7.56179775 15.177796,8.08931632 15.371857,8.5904907 C15.5659181,9.09134768 15.8435798,9.52999429 16.2034992,9.90547832 C16.5640901,10.2812798 17.0022383,10.5809052 17.518951,10.8046721 C18.0353279,11.0281216 18.6158323,11.1398464 19.2604641,11.1398464 C19.8292173,11.1398464 20.3502947,11.0817622 20.8243677,10.9652765 C21.2984406,10.8487907 21.682198,10.7008824 21.9763113,10.5218689 L21.9763113,7.63194312 L19.6301201,7.63194312 L19.6301201,6.7717895 L23,6.7717895 L23,11.0703358 C22.4500485,11.3848791 21.857793,11.6184854 21.2228979,11.7711547 C20.5873312,11.923824 19.9285981,12 19.2463628,12 C18.4879132,12 17.7865403,11.8746271 17.1419085,11.6238812 C16.4972767,11.3731353 15.9429605,11.0255824 15.4786242,10.5821748 C15.0139521,10.1384498 14.6513467,9.61220085 14.390808,9.00279312 C14.1302693,8.39338539 14,7.72589348 14,7 C14,6.27442392 14.1322838,5.60693201 14.3978587,4.99752428 C14.6630978,4.38811655 15.0307394,3.86155018 15.4997762,3.41814258 C15.9691487,2.97441757 16.5234649,2.62749952 17.1633963,2.37643623 C17.8033276,2.12569034 18.497314,2 19.2463628,2 C20.0518168,2 20.7535253,2.11394655 21.3504812,2.34152225 C21.9477729,2.56909795 22.4594494,2.88554561 22.8861822,3.29023043 L22.1750727,3.96248334 Z" id="Fill-10" fill="#FFFFFF"></path>
                <mask id="mask-8" fill="white">
                    <use xlink:href="#path-7"></use>
                </mask>
                <g id="Clip-13"></g>
                <polygon id="Fill-12" fill="#FFFFFF" mask="url(#mask-8)" points="26 11 27 11 27 1 26 1"></polygon>
                <path d="M35.9899673,8.5 C35.9899673,8.13007584 35.9316644,7.78165499 35.8147272,7.45440146 C35.69779,7.12714793 35.5318253,6.84222905 35.3165018,6.60065278 C35.1015096,6.35874052 34.8398088,6.16655467 34.5310681,6.02443122 C34.2223274,5.88197178 33.8764848,5.81107805 33.493209,5.81107805 C33.1092707,5.81107805 32.765747,5.88197178 32.4619753,6.02443122 C32.1578723,6.16655467 31.8984904,6.35874052 31.6834982,6.60065278 C31.4681747,6.84222905 31.30221,7.12714793 31.1852728,7.45440146 C31.0683356,7.78165499 31.0100327,8.13007584 31.0100327,8.5 C31.0100327,8.87026015 31.0683356,9.218681 31.1852728,9.54593453 C31.30221,9.87285207 31.4681747,10.157771 31.6834982,10.3996832 C31.8984904,10.6415955 32.1578723,10.8310934 32.4619753,10.968849 C32.765747,11.1062686 33.1092707,11.1748104 33.493209,11.1748104 C33.8764848,11.1748104 34.2223274,11.1062686 34.5310681,10.968849 C34.8398088,10.8310934 35.1015096,10.6415955 35.3165018,10.3996832 C35.5318253,10.157771 35.69779,9.87285207 35.8147272,9.54593453 C35.9316644,9.218681 35.9899673,8.87026015 35.9899673,8.5 M37,8.5 C37,9.0029759 36.9135393,9.46731305 36.740618,9.89435538 C36.5673655,10.3210617 36.3268657,10.6909859 36.018125,11.0041279 C35.7097156,11.3172698 35.3400218,11.561534 34.9100374,11.7369204 C34.4793905,11.9123068 34.0073352,12 33.493209,12 C32.9880271,12 32.5202783,11.9123068 32.0902939,11.7369204 C31.6599782,11.561534 31.2906157,11.3172698 30.981875,11.0041279 C30.6734655,10.6909859 30.4326345,10.3210617 30.2597132,9.89435538 C30.0864607,9.46731305 30,9.0029759 30,8.5 C30,7.99736008 30.0864607,7.53268695 30.2597132,7.10564462 C30.4326345,6.67893827 30.6734655,6.30901411 30.981875,5.99587213 C31.2906157,5.68273015 31.6599782,5.43880196 32.0902939,5.26307958 C32.5202783,5.08769319 32.9880271,5 33.493209,5 C34.0073352,5 34.4793905,5.08769319 34.9100374,5.26307958 C35.3400218,5.43880196 35.7097156,5.68273015 36.018125,5.99587213 C36.3268657,6.30901411 36.5673655,6.67893827 36.740618,7.10564462 C36.9135393,7.53268695 37,7.99736008 37,8.5" id="Fill-14" fill="#FFFFFF" mask="url(#mask-8)"></path>
                <path d="M45.9693355,8.4766312 C45.9693355,8.10423713 45.9122078,7.75348995 45.7976144,7.42405141 C45.6830211,7.09461288 45.5183987,6.80779165 45.3037473,6.56460242 C45.089096,6.32107496 44.8240777,6.12760593 44.5090303,5.98453355 C44.194321,5.84112293 43.8363434,5.76975586 43.4354356,5.76975586 C43.0632606,5.76975586 42.7198184,5.83909354 42.4047711,5.97709243 C42.0897238,6.11576779 41.8179448,6.30653096 41.588758,6.55005842 C41.3599092,6.79358588 41.1807514,7.08006888 41.0519606,7.40950741 C40.9231698,7.73894594 40.8589434,8.09476662 40.8589434,8.4766312 C40.8589434,8.85883402 40.9231698,9.21431646 41.0519606,9.543755 C41.1807514,9.87319353 41.3599092,10.1573089 41.588758,10.3961011 C41.8179448,10.6348933 42.0897238,10.8232889 42.4047711,10.9619642 C42.7198184,11.1003013 43.0632606,11.1693008 43.4354356,11.1693008 C43.8363434,11.1693008 44.194321,11.1003013 44.5090303,10.9619642 C44.8240777,10.8232889 45.089096,10.6325257 45.3037473,10.3889982 C45.5183987,10.1454708 45.6830211,9.85864953 45.7976144,9.52954923 C45.9122078,9.20011069 45.9693355,8.84936351 45.9693355,8.4766312 L45.9693355,8.4766312 Z M40.9735368,10.6967899 L40.9735368,11.8281778 L40,11.8281778 L40,1 L40.9735368,1 L40.9735368,6.28522231 L41.0019316,6.28522231 C41.2882461,5.84619642 41.6604211,5.51439026 42.1184566,5.28980383 C42.5764922,5.06555562 43.0490632,4.95326241 43.5358316,4.95326241 C44.0604597,4.95326241 44.5353969,5.04424697 44.9603052,5.2252014 C45.3845374,5.4068323 45.7472474,5.65509501 46.0480974,5.96998955 C46.3486092,6.28522231 46.5821905,6.65761638 46.7495171,7.08750999 C46.9161677,7.51706537 47,7.98044401 47,8.4766312 C47,8.97315663 46.9161677,9.43619704 46.7495171,9.86609065 C46.5821905,10.295646 46.3486092,10.6680401 46.0480974,10.9832729 C45.7472474,11.2985056 45.3845374,11.5467683 44.9603052,11.728061 C44.5353969,11.9093537 44.0604597,12 43.5358316,12 C43.0490632,12 42.5764922,11.8904126 42.1184566,11.6708997 C41.6604211,11.4510485 41.2882461,11.1263452 41.0019316,10.6967899 L40.9735368,10.6967899 Z" id="Fill-15" fill="#FFFFFF" mask="url(#mask-8)"></path>
                <path d="M53.626799,8.5 C53.2087764,8.5 52.7882864,8.51679946 52.3656817,8.54972641 C51.9427245,8.58332533 51.5595958,8.64951522 51.2162956,8.74896803 C50.8729954,8.84875684 50.5917288,8.99323222 50.373201,9.18306614 C50.1539682,9.37290007 50.0443518,9.62422002 50.0443518,9.93702602 C50.0443518,10.1742344 50.091582,10.373476 50.1863949,10.5347509 C50.2808553,10.6960257 50.4077425,10.8263896 50.5670563,10.9258424 C50.7263702,11.0256312 50.9026024,11.0968609 51.0968102,11.1391955 C51.291018,11.1822022 51.4873407,11.2033695 51.686483,11.2033695 C52.0445867,11.2033695 52.362862,11.1442354 52.6416613,11.0256312 C52.9201081,10.907027 53.1541444,10.7457521 53.3430653,10.5418067 C53.5319861,10.3378612 53.6764965,10.1030047 53.7762439,9.8375732 C53.8756388,9.57214169 53.9253363,9.29226265 53.9253363,8.99793607 L53.9253363,8.5 L53.626799,8.5 Z M53.9253363,7.51991936 C53.9253363,6.94571374 53.7660224,6.51732745 53.4477472,6.23476049 C53.1291194,5.95219353 52.6663338,5.81107805 52.0593902,5.81107805 C51.64172,5.81107805 51.2536568,5.88197178 50.8952006,6.02443122 C50.5370969,6.16655467 50.2336251,6.3563886 49.9847853,6.593597 L49.4176702,5.9532015 C49.7063385,5.67836229 50.0869999,5.45056158 50.5593021,5.27013536 C51.0319568,5.09038111 51.5669976,5 52.1640721,5 C52.5419139,5 52.8954356,5.04972641 53.2235799,5.14917923 C53.5524291,5.24896803 53.8403924,5.39848325 54.0895847,5.59738888 C54.3384245,5.79663051 54.5322799,6.04828645 54.6715033,6.35168475 C54.8107267,6.65508304 54.8805146,7.01089565 54.8805146,7.4187866 L54.8805146,10.3355093 C54.8805146,10.5915331 54.8903836,10.8573006 54.9104741,11.1321398 C54.9302121,11.407315 54.9601715,11.6398195 55,11.8293175 L54.0895847,11.8293175 C54.0596252,11.6683786 54.0349527,11.4929922 54.0152147,11.3031583 C53.9947718,11.1133244 53.9852552,10.9285303 53.9852552,10.7481041 L53.9552958,10.7481041 C53.636668,11.1939618 53.276097,11.5141595 52.8732303,11.7083613 C52.4700112,11.9025631 51.9850203,12 51.4179052,12 C51.1489749,12 50.8729954,11.9643851 50.5892616,11.8931554 C50.3058803,11.8219257 50.0471715,11.7053374 49.8131352,11.5437266 C49.5794513,11.3817798 49.3852435,11.1724585 49.2312166,10.9154267 C49.0768372,10.6583949 49,10.344581 49,9.97297686 C49,9.45891331 49.1364037,9.05236632 49.4102685,8.75266391 C49.6837808,8.45296151 50.0496387,8.22919267 50.5071374,8.08169339 C50.9646361,7.93385812 51.4898079,7.83877316 52.0823004,7.79610252 C52.6737355,7.75343189 53.2884333,7.73159259 53.9253363,7.73159259 L53.9253363,7.51991936 Z" id="Fill-16" fill="#FFFFFF" mask="url(#mask-8)"></path>
                <polygon id="Fill-17" fill="#FFFFFF" mask="url(#mask-8)" points="58 11 59 11 59 1 58 1"></polygon>
                <polygon id="Fill-18" fill="#FFFFFF" mask="url(#mask-8)" points="68.52729 12 67.472364 12 67.472364 2.90390581 64 2.90390581 64 2 72 2 72 2.90390581 68.52729 2.90390581"></polygon>
                <path d="M73.0450994,5.96251291 C73.0351562,5.6708319 73.0198864,5.4084223 73,5.17493974 L73.9776278,5.17493974 C73.9975142,5.35986619 74.012429,5.56407734 74.0223722,5.78757318 C74.0323153,6.01141339 74.037642,6.19599547 74.037642,6.34200817 L74.0678267,6.34200817 C74.2677557,5.94322822 74.568892,5.6198652 74.9698153,5.37191912 C75.3707386,5.12397304 75.821733,5 76.3231534,5 C76.4538352,5 76.571733,5.00516554 76.6768466,5.01480789 C76.7819602,5.02445024 76.8895597,5.04373493 77,5.07300635 L76.8647017,6.02071137 C76.8046875,6.00142667 76.7041903,5.98214198 76.5639205,5.96251291 C76.4236506,5.94322822 76.2830256,5.93358587 76.1431108,5.93358587 C75.8721591,5.93358587 75.6115057,5.98214198 75.3607955,6.07890982 C75.1100852,6.17602204 74.8920455,6.32857775 74.7066761,6.53726571 C74.5209517,6.74560929 74.3703835,7.0124957 74.2556818,7.33723619 C74.1402699,7.66232105 74.0827415,8.05283613 74.0827415,8.50843705 L74.0827415,12 L73.0600142,12 L73.0600142,6.67707975 C73.0600142,6.49249766 73.0546875,6.25419393 73.0450994,5.96251291" id="Fill-19" fill="#FFFFFF" mask="url(#mask-8)"></path>
                <path d="M82.626799,8.5 C82.2087764,8.5 81.7882864,8.51679946 81.3660342,8.54972641 C80.9427245,8.58332533 80.5599483,8.64951522 80.2162956,8.74896803 C79.8733478,8.84875684 79.5917288,8.99323222 79.373201,9.18306614 C79.1539682,9.37290007 79.0447042,9.62422002 79.0447042,9.93702602 C79.0447042,10.1742344 79.0919344,10.373476 79.1863949,10.5347509 C79.2812078,10.6960257 79.4077425,10.8263896 79.5670563,10.9258424 C79.7263702,11.0256312 79.9029548,11.0968609 80.0968102,11.1391955 C80.291018,11.1822022 80.4876931,11.2033695 80.6868355,11.2033695 C81.0449392,11.2033695 81.3632145,11.1442354 81.6420137,11.0256312 C81.9201081,10.907027 82.1541444,10.7457521 82.3430653,10.5418067 C82.5319861,10.3378612 82.676849,10.1030047 82.7762439,9.8375732 C82.8756388,9.57214169 82.9256888,9.29226265 82.9256888,8.99793607 L82.9256888,8.5 L82.626799,8.5 Z M82.9256888,7.51991936 C82.9256888,6.94571374 82.7663749,6.51732745 82.4477472,6.23476049 C82.1294719,5.95219353 81.6663338,5.81107805 81.0597427,5.81107805 C80.64172,5.81107805 80.2540093,5.88197178 79.8955531,6.02443122 C79.5370969,6.16655467 79.2336251,6.3563886 78.9847853,6.593597 L78.4180227,5.9532015 C78.7063385,5.67836229 79.0869999,5.45056158 79.5596546,5.27013536 C80.0323092,5.09038111 80.5673501,5 81.1644246,5 C81.5422663,5 81.8957881,5.04972641 82.2235799,5.14917923 C82.5524291,5.24896803 82.8407449,5.39848325 83.0895847,5.59738888 C83.3384245,5.79663051 83.5322799,6.04828645 83.6718557,6.35168475 C83.8107267,6.65508304 83.8808671,7.01089565 83.8808671,7.4187866 L83.8808671,10.3355093 C83.8808671,10.5915331 83.8903836,10.8573006 83.9108265,11.1321398 C83.9302121,11.407315 83.9601715,11.6398195 84,11.8293175 L83.0895847,11.8293175 C83.0599777,11.6683786 83.0349527,11.4929922 83.0152147,11.3031583 C82.9951242,11.1133244 82.9856077,10.9285303 82.9856077,10.7481041 L82.9556482,10.7481041 C82.636668,11.1939618 82.2764495,11.5141595 81.8732303,11.7083613 C81.4703636,11.9025631 80.9853727,12 80.4179052,12 C80.1493274,12 79.8733478,11.9643851 79.5896141,11.8931554 C79.3058803,11.8219257 79.0471715,11.7053374 78.8134876,11.5437266 C78.5794513,11.3817798 78.385596,11.1724585 78.2312166,10.9154267 C78.0771897,10.6583949 78,10.344581 78,9.97297686 C78,9.45891331 78.1367562,9.05236632 78.4106209,8.75266391 C78.6837808,8.45296151 79.0499912,8.22919267 79.5074899,8.08169339 C79.9649885,7.93385812 80.4901604,7.83877316 81.0823004,7.79610252 C81.674088,7.75343189 82.2887858,7.73159259 82.9256888,7.73159259 L82.9256888,7.51991936 Z" id="Fill-20" fill="#FFFFFF" mask="url(#mask-8)"></path>
                <path d="M87.0307143,8.4766312 C87.0307143,8.84936351 87.0878447,9.20011069 87.2021056,9.52954923 C87.3167045,9.85864953 87.4813348,10.1454708 87.6963346,10.3889982 C87.9109963,10.6325257 88.1760274,10.8232889 88.4904139,10.9619642 C88.8058145,11.1003013 89.1634713,11.1693008 89.5643985,11.1693008 C89.9365915,11.1693008 90.2800502,11.1003013 90.5951128,10.9619642 C90.9101753,10.8232889 91.1819675,10.6348933 91.4111653,10.3961011 C91.6403632,10.1573089 91.8188535,9.87319353 91.9479886,9.543755 C92.0767856,9.21431646 92.1410151,8.85883402 92.1410151,8.4766312 C92.1410151,8.09476662 92.0767856,7.73894594 91.9479886,7.40950741 C91.8188535,7.08006888 91.6403632,6.79358588 91.4111653,6.55005842 C91.1819675,6.30653096 90.9101753,6.11576779 90.5951128,5.97709243 C90.2800502,5.83909354 89.9365915,5.76975586 89.5643985,5.76975586 C89.1634713,5.76975586 88.8058145,5.84112293 88.4904139,5.98453355 C88.1760274,6.12760593 87.9109963,6.32107496 87.6963346,6.56460242 C87.4813348,6.80779165 87.3167045,7.09461288 87.2021056,7.42405141 C87.0878447,7.75348995 87.0307143,8.10423713 87.0307143,8.4766312 L87.0307143,8.4766312 Z M91.9976819,10.6967899 C91.7116917,11.1263452 91.3394987,11.4510485 90.8814411,11.6708997 C90.4230453,11.8904126 89.9511276,12 89.4639977,12 C88.9393442,12 88.464046,11.9093537 88.0397933,11.728061 C87.6152026,11.5467683 87.252475,11.2985056 86.9519486,10.9832729 C86.6510842,10.6680401 86.4174917,10.295646 86.250157,9.86609065 C86.0831603,9.43619704 86,8.97315663 86,8.4766312 C86,7.98044401 86.0831603,7.51706537 86.250157,7.08750999 C86.4174917,6.65761638 86.6510842,6.28522231 86.9519486,5.96998955 C87.252475,5.65509501 87.6152026,5.4068323 88.0397933,5.2252014 C88.464046,5.04424697 88.9393442,4.95326241 89.4639977,4.95326241 C89.9511276,4.95326241 90.4230453,5.06555562 90.8814411,5.28980383 C91.3394987,5.51439026 91.7116917,5.84619642 91.9976819,6.28522231 L92.0264162,6.28522231 L92.0264162,1 L93,1 L93,11.8281778 L92.0264162,11.8281778 L92.0264162,10.6967899 L91.9976819,10.6967899 Z" id="Fill-21" fill="#FFFFFF" mask="url(#mask-8)"></path>
                <path d="M101.1,7.98780898 C101.073819,7.36189105 100.888706,6.8424766 100.545277,6.42990161 C100.202156,6.01732661 99.712731,5.81103912 99.0785421,5.81103912 C98.7825462,5.81103912 98.5084189,5.87050636 98.2567762,5.9887689 C98.0039014,6.10770338 97.7824435,6.26863451 97.5908624,6.47257019 C97.3998973,6.67684185 97.2477413,6.90899928 97.1347023,7.16971442 C97.0216632,7.43076554 96.9563655,7.70323974 96.939117,7.98780898 L101.1,7.98780898 Z M102,8.30093593 L102,8.51427886 C102,8.59020878 101.99538,8.67084233 101.986756,8.75617951 L96.9258727,8.75617951 C96.9348049,9.08812095 96.9954825,9.4012479 97.1085216,9.69522438 C97.2215606,9.98953684 97.3780287,10.2455484 97.5779261,10.4635949 C97.7781314,10.6816415 98.0131417,10.8546676 98.2826489,10.9830094 C98.5521561,11.1106791 98.8435318,11.17485 99.1561602,11.17485 C99.6175565,11.17485 100.015195,11.0589393 100.349692,10.8261099 C100.684497,10.5939525 100.938912,10.3258459 101.112936,10.0224622 L101.778234,10.5916007 C101.413244,11.0945524 101.010678,11.4547156 100.571458,11.6727622 C100.132238,11.8908087 99.6603696,12 99.1561602,12 C98.7043121,12 98.2844969,11.912311 97.8979466,11.736933 C97.5107803,11.5612191 97.1784394,11.3169666 96.899692,11.0041757 C96.6215606,10.6910487 96.4019507,10.3211423 96.2414784,9.89445644 C96.0803901,9.46743461 96,9.00278378 96,8.49983201 C96,7.9975522 96.0779261,7.53256539 96.2347023,7.10587953 C96.3914784,6.67885769 96.6083162,6.30895128 96.8867556,5.99582433 C97.1651951,5.68303336 97.4910678,5.4387809 97.8649897,5.26340293 C98.2389117,5.08802496 98.6430185,5 99.0785421,5 C99.5562628,5 99.9779261,5.08802496 100.343532,5.26340293 C100.708522,5.4387809 101.012834,5.67597792 101.256468,5.97465803 C101.499795,6.27333813 101.684292,6.62207823 101.810883,7.02054236 C101.936858,7.41867051 102,7.84569234 102,8.30093593 L102,8.30093593 Z" id="Fill-22" fill="#FFFFFF" mask="url(#mask-8)"></path>
            </g>
        </g>
    </g>
</svg>