<?xml version="1.0" encoding="UTF-8"?>
<svg width="23px" height="23px" viewBox="0 0 23 23" version="1.1" xmlns="http://www.w3.org/2000/svg" xmlns:xlink="http://www.w3.org/1999/xlink">
    <title></title>
    <g id="GlobalTradeBox" stroke="none" stroke-width="1" fill="none" fill-rule="evenodd">
        <g id="GTB-Landing-v1" transform="translate(-1026.000000, -3915.000000)" fill="#0D53F7">
            <g id="Group-18" transform="translate(180.000000, 3856.000000)">
                <g id="Group-17" transform="translate(846.000000, 0.000000)">
                    <g id="Group-15" transform="translate(0.000000, 59.000000)">
                        <path d="M12.5730111,23 L12.5730111,13.9078326 L9.44642857,13.9078326 L9.44642857,10.4372668 L12.5678471,10.4372668 L12.5678471,7.87546648 C12.5678471,4.90290179 14.3852779,3.28571429 17.034365,3.28571429 C18.3075692,3.28571429 19.3959721,3.38327898 19.7142857,3.42434038 L19.7142857,6.52520316 L17.8763493,6.52520316 C16.4336853,6.52520316 16.1564832,7.20805577 16.1564832,8.21428571 L16.1564832,10.4321529 L19.7142857,10.4321529 L19.2676239,13.9026685 L16.1564832,13.9026685 L16.1564832,23 L20.5357143,23 C21.8962054,23 23,21.8962054 23,20.5357143 L23,2.46428571 C23,1.10379464 21.8962054,0 20.5357143,0 L2.46428571,0 C1.10379464,0 0,1.10379464 0,2.46428571 L0,20.5357143 C0,21.8962054 1.10379464,23 2.46428571,23 L12.5730111,23 Z" id=""></path>
                    </g>
                </g>
            </g>
        </g>
    </g>
</svg>