<?xml version="1.0" encoding="UTF-8"?>
<svg width="24px" height="24px" viewBox="0 0 24 24" version="1.1" xmlns="http://www.w3.org/2000/svg" xmlns:xlink="http://www.w3.org/1999/xlink">
    <title></title>
    <g id="GlobalTradeBox" stroke="none" stroke-width="1" fill="none" fill-rule="evenodd">
        <g id="GTB-Landing-v1" transform="translate(-1186.000000, -3915.000000)" fill="#0D53F7">
            <g id="Group-18" transform="translate(180.000000, 3856.000000)">
                <g id="Group-17" transform="translate(846.000000, 0.000000)">
                    <g id="Group-15" transform="translate(0.000000, 59.000000)">
                        <path d="M176.94991,23.915669 C178.872074,23.8246176 180.574685,23.3854686 181.977485,21.9770225 C183.380233,20.5739109 183.819284,18.8709207 183.915648,16.9483298 C184.028117,14.966851 184.028117,9.03313589 183.915648,7.05165712 C183.82467,5.12906626 183.385618,3.42607605 181.977485,2.02296441 C180.574685,0.619905068 178.872074,0.18075607 176.94991,0.0843702656 C174.968871,-0.0281234219 169.031089,-0.0281234219 167.050051,0.0843702656 C165.133273,0.175369343 163.430661,0.614518341 162.022528,2.01762998 C160.614395,3.42074162 160.180677,5.12373183 160.084312,7.04632269 C159.971896,9.02780146 159.971896,14.966851 160.084312,16.9483298 C160.175343,18.8709207 160.614395,20.5739109 162.022528,21.9770225 C163.430661,23.3801342 165.12794,23.8192309 167.050051,23.915669 C169.031089,24.0281103 174.968871,24.0281103 176.94991,23.915669 Z M172.002647,21.8377521 C170.257212,21.8377521 166.503969,21.9770225 164.929825,21.3557708 C163.880431,20.9380641 163.071922,20.1294274 162.648975,19.0744134 C162.022528,17.4945858 162.167101,13.7458421 162.167101,12.0000196 C162.167101,10.2541448 162.027861,6.50006673 162.648975,4.9255735 C163.066589,3.8759462 163.875046,3.06725727 164.929825,2.64421616 C166.509302,2.01762998 170.257212,2.16223484 172.002647,2.16223484 C173.748134,2.16223484 177.501378,2.02296441 179.075521,2.64421616 C180.124915,3.06192285 180.933424,3.87055948 181.356371,4.9255735 C181.982818,6.50540116 181.838246,10.2541448 181.838246,12.0000196 C181.838246,13.7458421 181.982818,17.4999202 181.356371,19.0744134 C180.938758,20.1240407 180.130301,20.9327297 179.075521,21.3557708 C177.496044,21.9823569 173.748134,21.8377521 172.002647,21.8377521 Z M178.406251,7.03021481 C179.198656,7.03021481 179.841155,6.39295977 179.841155,5.594992 C179.841155,4.80241095 179.198656,4.15976919 178.406251,4.15976919 C177.613846,4.15976919 176.971347,4.80241095 176.971347,5.594992 C176.971347,6.38757305 177.608461,7.03021481 178.406251,7.03021481 Z M172.002647,18.1532831 C175.407923,18.1532831 178.154595,15.406 178.154595,12.0000196 C178.154595,8.59398689 175.407923,5.84670382 172.002647,5.84670382 C168.597423,5.84670382 165.850751,8.59398689 165.850751,12.0000196 C165.850751,15.406 168.597423,18.1532831 172.002647,18.1532831 Z M172.002647,16.0004227 C169.802109,16.0004227 168.003133,14.2063812 168.003133,12.0000196 C168.003133,9.79360577 169.796776,7.99956418 172.002647,7.99956418 C174.208571,7.99956418 176.002213,9.79360577 176.002213,12.0000196 C176.002213,14.2063812 174.203237,16.0004227 172.002647,16.0004227 Z" id=""></path>
                    </g>
                </g>
            </g>
        </g>
    </g>
</svg>