<?xml version="1.0" encoding="UTF-8"?>
<svg width="23px" height="23px" viewBox="0 0 23 23" version="1.1" xmlns="http://www.w3.org/2000/svg" xmlns:xlink="http://www.w3.org/1999/xlink">
    <title></title>
    <g id="GlobalTradeBox" stroke="none" stroke-width="1" fill="none" fill-rule="evenodd">
        <g id="GTB-Landing-v1" transform="translate(-1077.000000, -3915.000000)" fill="#0D53F7">
            <g id="Group-18" transform="translate(180.000000, 3856.000000)">
                <g id="Group-17" transform="translate(846.000000, 0.000000)">
                    <g id="Group-15" transform="translate(0.000000, 59.000000)">
                        <path d="M71.5357143,23 C72.8962054,23 74,21.8962054 74,20.5357143 L74,2.46428571 C74,1.10379464 72.8962054,0 71.5357143,0 L53.4642857,0 C52.1037946,0 51,1.10379464 51,2.46428571 L51,20.5357143 C51,21.8962054 52.1037946,23 53.4642857,23 L71.5357143,23 Z M59.4555904,18.1689933 C57.5457589,18.1689933 55.7745536,17.6144889 54.2857143,16.6595982 C54.5578025,16.6903817 54.8196629,16.7006596 55.096865,16.7006596 C56.6729911,16.7006596 58.120769,16.1667611 59.2759029,15.2631596 C57.7973415,15.2323761 56.5549207,14.2620435 56.1288147,12.9272221 C56.6473214,13.004231 57.1144889,13.004231 57.6484375,12.8656049 C56.1082589,12.5524554 54.953125,11.1970782 54.953125,9.55938503 L54.953125,9.51832363 C55.3997868,9.76985604 55.9234576,9.9238739 56.4727478,9.94442967 C55.6452528,9.39398629 54.9736808,8.1406359 54.9736808,7.14678955 L54.9736808,7.14127459 C54.9736808,6.51497541 55.1379264,5.93996538 55.4305703,5.44196429 C57.0888192,7.48525783 59.5787746,8.82007926 62.3716518,8.96381923 C61.8942065,6.67922102 63.6037946,4.82589286 65.6573661,4.82589286 C66.6276986,4.82589286 67.5004665,5.23149327 68.1165379,5.8886261 C68.8763493,5.74488613 69.6053772,5.46252005 70.2522321,5.07747541 C70.0006496,5.85779245 69.471865,6.51497541 68.7736707,6.93080357 C69.4513593,6.85890852 70.1084922,6.66899327 70.7142857,6.40713283 C70.257346,7.07970755 69.6823861,7.67522321 69.0252032,8.15266854 C69.035481,8.29640852 69.035481,8.4453125 69.035481,8.58905247 C69.035481,13.0401786 65.6470882,18.1689933 59.4555904,18.1689933 Z" id=""></path>
                    </g>
                </g>
            </g>
        </g>
    </g>
</svg>