<?xml version="1.0" encoding="UTF-8"?>
<svg width="29px" height="20px" viewBox="0 0 29 20" version="1.1" xmlns="http://www.w3.org/2000/svg" xmlns:xlink="http://www.w3.org/1999/xlink">
    <title></title>
    <g id="GlobalTradeBox" stroke="none" stroke-width="1" fill="none" fill-rule="evenodd">
        <g id="GTB-Landing-v1" transform="translate(-1129.000000, -3917.000000)" fill="#0D53F7">
            <g id="Group-18" transform="translate(180.000000, 3856.000000)">
                <g id="Group-17" transform="translate(846.000000, 0.000000)">
                    <g id="Group-15" transform="translate(0.000000, 59.000000)">
                        <path d="M128.830906,21.4028003 C130.07865,21.0735888 131.06135,20.1437902 131.394898,18.9119431 C131.931647,16.9342674 131.992989,13.0535778 132,12.1923939 L132,11.8484592 C131.992989,10.9872844 131.931647,7.10663462 131.394898,5.12895898 C131.06135,3.89706099 130.07865,2.92687393 128.830906,2.59766245 C126.800072,2.06041515 119.280358,2.005594 117.766868,2 L117.234038,2 C115.720557,2.005594 108.200879,2.06041515 106.169998,2.59766245 C104.922255,2.9269248 103.939555,3.89706099 103.606007,5.12895898 C103.069258,7.10663462 103.007915,10.9872844 103.000905,11.8484592 L103,11.9761121 C103,11.990663 103,12.0017413 103,12.009182 L103,12.0204256 C103,12.0204256 103,12.0356375 103,12.0647396 L103.000905,12.1923939 C103.007915,13.0535778 103.069258,16.9342674 103.606007,18.9119431 C103.939555,20.1437902 104.922255,21.0735888 106.169998,21.4028003 C108.154722,21.9278375 115.381588,21.9921277 117.121674,22 L117.87923,22 C119.619316,21.9921277 126.846182,21.9278375 128.830906,21.4028003 Z M114.534409,16.2501217 L114.534409,7.79072946 L122.114164,12.0205273 L114.534409,16.2501217 Z" id=""></path>
                    </g>
                </g>
            </g>
        </g>
    </g>
</svg>